<svg xmlns="http://www.w3.org/2000/svg" viewBox="0 0 71 26"><defs><style>.cls-1{fill:#fff;}</style></defs><title>kea</title><g id="dreng"><g id="Group_1585" data-name="Group 1585"><g id="Artwork_2" data-name="Artwork 2"><g id="Artwork_2-2" data-name="Artwork 2-2"><path id="Path_115" data-name="Path 115" class="cls-1" d="M63.93,11H54v2.5h9.78c3.36,0,4.38,1.06,4.62,2.7h-10c-3.72,0-5.4,1.43-5.4,4.66s1.68,4.7,5.44,4.7H70.85v-8.3c0-4.21-2.25-6.26-6.92-6.26m4.55,12.11H58.7c-3.07,0-3.19-.7-3.19-2.25s.32-2.17,3.23-2.17h9.7Z"/><path id="Path_116" data-name="Path 116" class="cls-1" d="M34.76,20.29h10c3.72,0,5.4-1.44,5.4-4.63S48.47,11,44.67,11H39.35c-6.3,0-7.2,3.52-7.2,7.32s.9,7.28,7.16,7.28H49.49V23.15h-10c-3.44,0-4.42-.9-4.75-2.82m4.75-6.92h4.91c2.9,0,3.19.7,3.19,2.25s-.29,2.13-3.23,2.13H34.65c.08-3.07.86-4.38,4.86-4.38"/><path id="Path_117" data-name="Path 117" class="cls-1" d="M27.32,11,15.45,22.33V11H13V25.6h2.62l5.68-5.44,6.46,5.44h3.89L23.1,18.45,30.88,11Z"/></g></g></g></g></svg>
